# xmcd
# 
# Track frame offsets:
#     150
#     29610
#     57667
#     95178
#     166966
#     192897
#     237492
#     259398
# 
# Disc length: 3672
# 
# Revision: 2
# Processed by: cddbd v1.5.2PL0 Copyright (c) Steve Scherf et al.
# Submitted via: BonkEnc v1.0.8
# 
DISCID=780e5608
DTITLE=Kannegaard, Kornstad, Vagan, Mjaset Johansen - Maryland - Live!
DYEAR=2008
DGENRE=Contemporary Jazz
TTITLE0=Ruslende
TTITLE1=Ballade
TTITLE2=Sjufire
TTITLE3=Hit Og Dit - Ingen Hast
TTITLE4=Bethesda
TTITLE5=Yeah, Yeah
TTITLE6=Ballade 2
TTITLE7=Forste Vake
EXTD=YEAR: 2009
EXTT0=
EXTT1=
EXTT2=
EXTT3=
EXTT4=
EXTT5=
EXTT6=
EXTT7=
PLAYORDER=
